<svg xmlns="http://www.w3.org/2000/svg" width="700" height="700" viewBox="0 0 700 700" version="1.1">
  <path d="M 329.500 60.984 C 258.865 70.734, 195.673 105.607, 152.987 159.500 C 136.284 180.508, 122.483 205.639, 114.051 231.500 C 108.323 249.264, 104.704 266.437, 102.676 286.500 C 101.743 295.850, 101.743 324.150, 102.676 333.500 C 110.213 414.101, 155.847 483.511, 227.500 524.309 C 263.756 545.318, 303.674 557.091, 347 559.533 C 354.975 559.996, 374.025 559.996, 382 559.533 C 425.326 557.091, 465.244 545.318, 501.500 524.309 C 573.153 483.511, 618.787 414.101, 626.324 333.500 C 627.220 324.652, 627.220 295.348, 626.324 286.500 C 622.808 247.514, 611.784 212.336, 593.437 179.948 C 549.600 104.714, 468.439 57.633, 380 58.073 C 360.475 58.182, 336.300 59.609, 329.500 60.984 M 336.772 140.565 C 324.258 142.413, 314.005 147.155, 304.979 155.693 C 297.764 162.511, 293.339 169.268, 290.138 178.652 C 288.217 184.242, 288 187.118, 288 201.960 C 288 214.726, 288.260 220.263, 288.951 222.960 C 291.818 233.598, 297.430 244.196, 304.517 251.763 C 308.457 255.981, 317.138 262.563, 323.500 266.178 C 326.350 267.804, 332.700 270.955, 338 273.107 C 343.300 275.259, 349.650 278.435, 352.500 280.094 C 355.350 281.752, 360.636 284.773, 364.637 286.733 C 390.156 301.178, 399.970 315.398, 399.988 339 C 400.001 355.899, 394.918 368.301, 383.963 379.270 C 372.929 390.318, 358.850 396, 340.536 396 C 326.175 396, 314.865 393.061, 304.042 386.197 C 295.999 381.092, 289.127 374.017, 284.211 365.526 C 281.421 360.726, 280.903 360.053, 279.391 360.027 C 276.673 359.981, 274 362.571, 274 365.189 C 274 366.106, 274.674 367.995, 275.498 369.384 C 289.851 396.171, 312.955 410.713, 345.109 414.480 C 351.549 415.261, 366.909 415.244, 373.500 414.450 C 399.161 411.195, 418.647 399.113, 429.750 380.476 C 436.162 369.853, 439 358.874, 439 345.500 C 439 336.557, 438.540 332.467, 436.451 324.518 C 432.259 308.788, 423.781 297.219, 408.343 285.795 C 402.644 281.598, 397.425 278.357, 382.500 270.167 C 377.600 267.415, 371.250 264.098, 368.500 262.481 C 365.750 260.865, 359.375 257.300, 354.444 254.243 C 338.264 244.541, 328.912 235.275, 324.514 224.445 C 322.229 218.874, 322 216.856, 322 201.498 C 322 186.212, 322.228 184.131, 324.566 178.281 C 331.358 161.222, 348.223 152, 371.945 152 C 388.522 152, 401.138 156.359, 412.316 166.131 C 417.259 170.493, 423.210 178.408, 424.646 182.493 C 425.437 184.719, 425.989 185.124, 428.227 185.150 C 430.968 185.181, 433 183.118, 433 180.470 C 433 178.844, 428.179 169.824, 424.447 164.569 C 412.752 148.217, 391.964 139.996, 363.500 139.668 C 354.250 139.559, 340.823 139.980, 336.772 140.565" fill="#000000" stroke="none"/>
</svg> 